# xmcd CD database file
#
# Track frame offsets:
#	150
#	39474
#	89474
#	153132
#	191757
#	252154
#
# Disc length: 3760 seconds
#
# Revision: 0
# Processed by: cddbd v1.5.2PL0 Copyright (c) Steve Scherf et al.
# Submitted via: CDex 1.70beta3
#
DISCID=430eae06
DTITLE=Sun Ra - Disco 3000 - 2
DYEAR=1900
DGENRE=Jazz
TTITLE0=Third Planet incl, Friendly Galaxy
TTITLE1=Dance of the Cosmo Aliens
TTITLE2=Spontaneous Simplicity
TTITLE3=Images incl, Over the Rainbow
TTITLE4=The Sky is a Sea of Darkness When There is No Sun
TTITLE5=We Travel the Spaceways
EXTD=
EXTT0=
EXTT1=
EXTT2=
EXTT3=
EXTT4=
EXTT5=
PLAYORDER=
